<?xml version="1.0" encoding="iso-8859-1"?>
<!-- Generator: Adobe Illustrator 19.0.0, SVG Export Plug-In . SVG Version: 6.00 Build 0)  -->
<svg version="1.1" id="Layer_1" xmlns="http://www.w3.org/2000/svg" xmlns:xlink="http://www.w3.org/1999/xlink" x="0px" y="0px"
	 viewBox="0 0 512 512" style="enable-background:new 0 0 512 512;" xml:space="preserve">
<circle style="fill:#FFDE55;" cx="255.994" cy="255.994" r="131.313"/>
<path style="fill:#F2D546;" d="M286.73,356.579c-55.548,0-100.579-45.031-100.579-100.579s45.03-100.579,100.579-100.579
	c55.548,0,100.579,45.031,100.579,100.579c0-72.52-58.79-131.31-131.31-131.31S124.69,183.48,124.69,256S183.48,387.31,256,387.31
	s131.31-58.79,131.31-131.31C387.31,311.548,342.279,356.579,286.73,356.579z"/>
<path style="fill:#FFED9F;" d="M256,124.69c-2.939,0-5.854,0.107-8.745,0.297C315.697,129.489,369.82,186.419,369.82,256
	s-54.123,126.511-122.565,131.013c2.891,0.19,5.806,0.297,8.745,0.297c72.521,0,131.31-58.79,131.31-131.31
	S328.52,124.69,256,124.69z"/>
<g>
	<path style="fill:#495E77;" d="M241.19,219.576c0,23.147-18.769,41.916-41.916,41.916c-6.961,0-13.534-1.702-19.309-4.707
		c-13.428-6.984-22.607-21.023-22.607-37.209c0-23.147,18.769-41.916,41.916-41.916c8.064,0,15.6,2.277,21.997,6.233
		C233.22,191.275,241.19,204.492,241.19,219.576z"/>
	<circle style="fill:#495E77;" cx="312.724" cy="219.571" r="41.918"/>
</g>
<path d="M308.86,285.661c0,14.661-5.975,27.936-15.612,37.503c-9.555,9.496-22.713,15.365-37.245,15.365
	c-14.532,0-27.702-5.869-37.256-15.353c-9.637-9.578-15.612-22.854-15.612-37.515L308.86,285.661L308.86,285.661z"/>
<path style="fill:#F24141;" d="M293.248,323.164c-9.555,9.496-22.713,15.365-37.245,15.365c-14.532,0-27.702-5.869-37.256-15.353
	c6.033-14.637,20.436-24.943,37.256-24.943C272.812,298.232,287.215,308.526,293.248,323.164z"/>
<g>
	<path style="fill:#62788E;" d="M241.19,219.576c0,23.147-18.769,41.916-41.916,41.916c-6.961,0-13.534-1.702-19.309-4.707
		c13.687-14.438,30.777-38.043,41.306-72.893C233.22,191.275,241.19,204.492,241.19,219.576z"/>
	<path style="fill:#62788E;" d="M354.64,219.576c0,23.147-18.769,41.916-41.916,41.916c-6.961,0-13.534-1.702-19.309-4.707
		c13.686-14.438,30.777-38.043,41.306-72.893C346.67,191.275,354.64,204.492,354.64,219.576z"/>
</g>
<path d="M256,91.397c4.863,0,8.804-3.942,8.804-8.804V8.804C264.803,3.942,260.863,0,256,0s-8.803,3.942-8.803,8.804v73.79
	C247.196,87.455,251.137,91.397,256,91.397z"/>
<path d="M256,420.603c-4.863,0-8.803,3.942-8.803,8.803v73.79c0,4.862,3.94,8.803,8.803,8.803s8.804-3.942,8.804-8.803v-73.79
	C264.803,424.545,260.863,420.603,256,420.603z"/>
<path d="M378.616,142.187c2.253,0,4.506-0.859,6.226-2.579l52.178-52.178c3.438-3.438,3.438-9.011,0-12.449
	c-3.438-3.437-9.011-3.438-12.451,0l-52.178,52.178c-3.438,3.438-3.438,9.011,0,12.449
	C374.11,141.327,376.363,142.187,378.616,142.187z"/>
<path d="M127.157,372.392l-12.526,12.526c-3.438,3.438-3.438,9.012,0,12.45c1.72,1.718,3.973,2.579,6.226,2.579
	c2.253,0,4.506-0.859,6.226-2.579l12.526-12.526c3.438-3.438,3.438-9.012,0-12.451C136.169,368.954,130.596,368.954,127.157,372.392
	z"/>
<path d="M95.263,404.286L74.98,424.569c-3.438,3.438-3.438,9.012,0,12.451c1.72,1.72,3.972,2.579,6.226,2.579
	c2.253,0,4.506-0.859,6.226-2.579l20.283-20.283c3.438-3.438,3.438-9.011,0-12.449C104.277,400.848,98.704,400.847,95.263,404.286z"
	/>
<path d="M503.196,247.196h-31.801c-4.863,0-8.804,3.942-8.804,8.803c0,4.862,3.94,8.804,8.804,8.804h31.801
	c4.863,0,8.803-3.942,8.803-8.804C512,251.138,508.058,247.196,503.196,247.196z"/>
<path d="M443.812,247.196h-14.405c-4.863,0-8.803,3.942-8.803,8.803c0,4.862,3.94,8.804,8.803,8.804h14.405
	c4.863,0,8.803-3.942,8.803-8.804C452.615,251.138,448.673,247.196,443.812,247.196z"/>
<path d="M91.397,256c0-4.862-3.94-8.803-8.804-8.803H8.804C3.94,247.196,0,251.138,0,256c0,4.862,3.94,8.804,8.804,8.804h73.789
	C87.455,264.803,91.397,260.862,91.397,256z"/>
<path d="M432.25,173.465l-19.412,8.041c-4.492,1.86-6.626,7.01-4.764,11.502c1.404,3.39,4.681,5.437,8.137,5.437
	c1.122,0,2.264-0.216,3.365-0.673l19.412-8.041c4.492-1.86,6.626-7.01,4.764-11.502C441.891,173.739,436.742,171.605,432.25,173.465
	z"/>
<path d="M79.749,338.535l19.412-8.042c4.492-1.86,6.626-7.01,4.764-11.502c-1.86-4.492-7.011-6.626-11.502-4.764l-19.413,8.042
	c-4.492,1.86-6.626,7.01-4.764,11.502c1.404,3.39,4.681,5.437,8.137,5.437C77.506,339.207,78.647,338.991,79.749,338.535z"/>
<path d="M438.988,322.268l-19.413-8.042c-4.489-1.859-9.64,0.271-11.502,4.764c-1.862,4.492,0.271,9.642,4.764,11.502l19.412,8.042
	c1.101,0.457,2.242,0.673,3.365,0.673c3.454,0,6.732-2.047,8.137-5.437C445.613,329.278,443.481,324.129,438.988,322.268z"/>
<path d="M73.01,189.733l19.412,8.041c1.101,0.457,2.243,0.673,3.365,0.673c3.454,0,6.732-2.047,8.137-5.437
	c1.862-4.492-0.271-9.642-4.764-11.502l-19.412-8.041c-4.49-1.859-9.642,0.272-11.502,4.764
	C66.385,182.722,68.518,187.871,73.01,189.733z"/>
<path d="M330.493,412.839c-1.86-4.492-7.01-6.627-11.502-4.764c-4.492,1.86-6.626,7.01-4.764,11.502l8.042,19.412
	c1.404,3.39,4.681,5.437,8.137,5.437c1.122,0,2.264-0.216,3.365-0.673c4.492-1.86,6.626-7.01,4.764-11.502L330.493,412.839z"/>
<path d="M181.507,99.161c1.404,3.39,4.681,5.437,8.137,5.437c1.122,0,2.264-0.216,3.365-0.673c4.492-1.86,6.626-7.01,4.764-11.502
	l-8.042-19.412c-1.86-4.491-7.009-6.627-11.502-4.764c-4.492,1.86-6.626,7.01-4.764,11.502L181.507,99.161z"/>
<path d="M193.009,408.074c-4.489-1.86-9.642,0.271-11.502,4.764l-8.042,19.412c-1.862,4.492,0.271,9.642,4.764,11.502
	c1.101,0.457,2.242,0.673,3.365,0.673c3.454,0,6.732-2.047,8.137-5.437l8.042-19.412
	C199.634,415.084,197.501,409.935,193.009,408.074z"/>
<path d="M318.991,103.926c1.101,0.457,2.242,0.673,3.365,0.673c3.454,0,6.732-2.047,8.137-5.437l8.042-19.412
	c1.862-4.492-0.271-9.642-4.764-11.502c-4.489-1.86-9.64,0.272-11.502,4.764l-8.042,19.412
	C312.366,96.916,314.499,102.065,318.991,103.926z"/>
<path d="M384.842,372.392c-3.439-3.438-9.012-3.438-12.451,0s-3.438,9.012,0,12.451l52.178,52.177
	c1.72,1.72,3.973,2.579,6.226,2.579s4.506-0.859,6.226-2.579c3.438-3.438,3.438-9.012,0-12.45L384.842,372.392z"/>
<path d="M127.157,139.608c1.72,1.72,3.972,2.579,6.226,2.579c2.253,0,4.506-0.859,6.226-2.579c3.438-3.438,3.438-9.011,0-12.449
	L87.432,74.981c-3.438-3.437-9.011-3.438-12.451,0c-3.438,3.438-3.438,9.011,0,12.449L127.157,139.608z"/>
<path d="M308.862,276.857H203.138c-4.863,0-8.803,3.942-8.803,8.803c0,34.003,27.663,61.666,61.666,61.666
	s61.666-27.663,61.666-61.666C317.666,280.799,313.725,276.857,308.862,276.857z M294.171,307.626
	c-4.486-5.561-10.11-10.038-16.46-13.162h21.464C298.217,299.167,296.5,303.594,294.171,307.626z M234.295,294.464
	c-6.351,3.123-11.977,7.602-16.465,13.164c-2.33-4.032-4.047-8.461-5.005-13.164H234.295L234.295,294.464z M229.814,321.063
	c5.761-8.669,15.487-14.027,26.19-14.027c10.702,0,20.426,5.358,26.184,14.026c-7.327,5.435-16.386,8.658-26.187,8.658
	C246.199,329.719,237.139,326.496,229.814,321.063z"/>
<path d="M364.021,166.759c-3.098-3.747-8.646-4.271-12.395-1.174c-3.746,3.099-4.271,8.647-1.173,12.394
	c5.58,6.747,10.381,14.053,14.36,21.761l-4.118,3.404c-6.844-19.925-25.757-34.289-47.974-34.289
	c-24.963,0-45.758,18.134-49.941,41.918h-13.567c-4.182-23.784-24.977-41.918-49.941-41.918c-22.218,0-41.131,14.366-47.974,34.291
	l-4.108-3.396c20.412-39.327,61.522-66.258,108.807-66.258c27.312,0,53.148,8.789,74.721,25.419
	c3.849,2.966,9.378,2.255,12.348-1.598c2.967-3.851,2.253-9.379-1.598-12.347c-24.679-19.025-54.235-29.081-85.47-29.081
	c-77.258,0-140.113,62.855-140.113,140.113s62.855,140.113,140.113,140.113S396.112,333.258,396.112,256
	C396.113,223.475,384.717,191.783,364.021,166.759z M312.723,186.463c18.26,0,33.114,14.854,33.114,33.114
	s-14.854,33.114-33.114,33.114s-33.114-14.854-33.114-33.114S294.464,186.463,312.723,186.463z M199.276,186.463
	c18.26,0,33.114,14.854,33.114,33.114s-14.854,33.114-33.114,33.114s-33.114-14.854-33.114-33.114S181.016,186.463,199.276,186.463z
	 M256,378.506c-67.55,0-122.506-54.956-122.506-122.506c0-13.764,2.283-27.006,6.489-39.366l8.768,7.248
	c2.195,25.959,24.01,46.416,50.525,46.416c24.963,0,45.758-18.134,49.941-41.918h13.567c4.182,23.784,24.977,41.918,49.941,41.918
	c26.517,0,48.332-20.458,50.525-46.418l8.731-7.218c4.269,12.591,6.526,25.879,6.526,39.338
	C378.506,323.55,323.55,378.506,256,378.506z"/>
<g>
</g>
<g>
</g>
<g>
</g>
<g>
</g>
<g>
</g>
<g>
</g>
<g>
</g>
<g>
</g>
<g>
</g>
<g>
</g>
<g>
</g>
<g>
</g>
<g>
</g>
<g>
</g>
<g>
</g>
</svg>
